<?xml version="1.0" encoding="iso-8859-1"?>
<!-- Generator: Adobe Illustrator 21.1.0, SVG Export Plug-In . SVG Version: 6.00 Build 0)  -->
<svg version="1.1" id="Layer_1" xmlns="http://www.w3.org/2000/svg" xmlns:xlink="http://www.w3.org/1999/xlink" x="0px" y="0px"
	 viewBox="0 0 100.354 100.352" style="enable-background:new 0 0 100.354 100.352;" xml:space="preserve">
<g>
	<path d="M49.92,5.223c-24.603,0-44.619,20.016-44.619,44.619c0,24.604,20.016,44.619,44.619,44.619
		c24.604,0,44.619-20.016,44.619-44.619C94.539,25.239,74.523,5.223,49.92,5.223z M49.92,91.461
		c-22.949,0-41.619-18.67-41.619-41.619c0-22.949,18.67-41.619,41.619-41.619c22.949,0,41.619,18.67,41.619,41.619
		C91.539,72.791,72.869,91.461,49.92,91.461z"/>
	<path d="M68.267,57.09H31.577c-0.829,0-1.5,0.672-1.5,1.5c0,10.943,8.901,19.846,19.843,19.846
		c10.943,0,19.847-8.902,19.847-19.846C69.767,57.762,69.095,57.09,68.267,57.09z M49.92,75.436
		c-8.782,0-16.015-6.757-16.776-15.346H66.7C65.938,68.679,58.703,75.436,49.92,75.436z"/>
	<path d="M39.074,36.458c0-4.045-3.292-7.337-7.337-7.337c-4.045,0-7.337,3.292-7.337,7.337s3.292,7.337,7.337,7.337
		C35.783,43.795,39.074,40.503,39.074,36.458z M27.4,36.458c0-2.392,1.945-4.337,4.337-4.337s4.337,1.945,4.337,4.337
		s-1.946,4.337-4.337,4.337S27.4,38.849,27.4,36.458z"/>
	<path d="M67.27,29.121c-4.046,0-7.337,3.292-7.337,7.337s3.291,7.337,7.337,7.337s7.338-3.292,7.338-7.337
		S71.315,29.121,67.27,29.121z M67.27,40.795c-2.392,0-4.337-1.945-4.337-4.337s1.945-4.337,4.337-4.337s4.338,1.945,4.338,4.337
		S69.661,40.795,67.27,40.795z"/>
</g>
</svg>
